<?xml version="1.0" encoding="utf-8"?>
<!-- Generator: Adobe Illustrator 22.1.0, SVG Export Plug-In . SVG Version: 6.00 Build 0)  -->
<svg version="1.1" id="Layer_1" xmlns="http://www.w3.org/2000/svg" xmlns:xlink="http://www.w3.org/1999/xlink" x="0px" y="0px"
	 viewBox="0 0 113.4 79" style="enable-background:new 0 0 113.4 79;" xml:space="preserve">
<style type="text/css">
	.st0{clip-path:url(#SVGID_4_);fill:#A4E5FF;}
	.st1{clip-path:url(#SVGID_6_);fill:#284A66;}
	.st2{fill:#55C6FF;}
	.st3{fill:none;stroke:#FFFFFF;stroke-width:4.56;stroke-miterlimit:10;}
	.st4{fill:#284A66;}
	.st5{fill:#A4E5FF;}
	.st6{fill:#C0EDFF;}
</style>
<g>
	<g>
		<defs>
			<polygon id="SVGID_1_" points="20.5,35.4 96.6,35.4 109.9,78.6 7.3,78.6 			"/>
		</defs>
		<clipPath id="SVGID_2_">
			<use xlink:href="#SVGID_1_"  style="overflow:visible;"/>
		</clipPath>
	</g>
	<g>
		<defs>
			<polygon id="SVGID_3_" points="7.6,36.7 0,79 47.6,79 			"/>
		</defs>
		<clipPath id="SVGID_4_">
			<use xlink:href="#SVGID_3_"  style="overflow:visible;"/>
		</clipPath>
		<rect x="-8.2" y="28.5" class="st0" width="64.1" height="58.7"/>
	</g>
	<g>
		<defs>
			<path id="SVGID_5_" d="M58.5,0c12.2,0,22.2,9.9,22.2,22.2c0,16.2-15.2,32.3-22.2,38.8c-7-6.5-22.2-22.5-22.2-38.8
				C36.4,9.9,46.3,0,58.5,0z M58.5,32.1c5.5,0,10-4.5,10-10s-4.5-10-10-10c-5.5,0-10,4.5-10,10C48.6,27.7,53,32.1,58.5,32.1
				L58.5,32.1z"/>
		</defs>
		<clipPath id="SVGID_6_">
			<use xlink:href="#SVGID_5_"  style="overflow:visible;"/>
		</clipPath>
		<rect x="28.2" y="-8.2" class="st1" width="60.8" height="77.4"/>
	</g>
	<path class="st2" d="M54.5,79L35.7,59.2l9.4-6.6c0,0,7.9,10.3,13.5,14.3c1.5-1,11.4-10.8,12.5-12.9C72.7,55.6,94.8,79,94.8,79H54.5
		z"/>
	<path class="st3" d="M83,33.6"/>
	<path class="st2" d="M83,33.7c0,0-2.8,7.8-5.5,11.3c3.7,0,29.8,0,29.8,0l-2-11.3H83z"/>
	<path class="st4" d="M73.7,49.5"/>
	<polygon class="st5" points="74.5,49.5 108,49.5 110.2,60.8 84.5,60.8 74.2,49.9 	"/>
	<polygon class="st2" points="88.8,65.4 101.7,79 113.4,79 110.7,65.4 	"/>
	<path class="st6" d="M11.6,33.6l20.8,22l9.7-6.9c0,0-5.5-8-8.1-15.1C29.5,33.7,11.6,33.6,11.6,33.6z"/>
</g>
</svg>
